<?xml version="1.0" standalone="no"?>
<!DOCTYPE svg PUBLIC "-//W3C//DTD SVG 20010904//EN"
 "http://www.w3.org/TR/2001/REC-SVG-20010904/DTD/svg10.dtd">
<svg version="1.0" xmlns="http://www.w3.org/2000/svg"
 width="240.000000pt" height="240.000000pt" viewBox="0 0 240.000000 240.000000"
 preserveAspectRatio="xMidYMid meet">
<metadata>
Created by potrace 1.11, written by Peter Selinger 2001-2013
</metadata>
<g transform="translate(0.000000,240.000000) scale(0.100000,-0.100000)"
fill="#000000" stroke="none">
<path d="M261 2201 c-7 -5 -36 -7 -64 -6 -81 4 -149 -32 -182 -96 -12 -22 -14
-189 -14 -933 0 -1017 -4 -960 71 -1009 l42 -27 746 3 c1145 5 1333 8 1366 18
39 12 82 57 97 101 12 35 15 464 3 494 -3 8 0 14 7 14 8 0 8 3 -2 9 -7 5 -9
11 -5 14 10 6 10 249 0 265 -3 6 -1 14 5 18 8 4 7 9 -2 15 -8 5 -9 9 -4 9 6 0
10 37 10 95 0 52 2 95 5 95 3 0 5 12 4 28 -1 15 1 31 4 37 3 5 7 19 9 30 2 11
5 29 7 40 2 11 4 33 5 48 0 16 4 26 9 24 4 -3 7 9 8 26 0 18 4 53 8 79 l8 47
-35 6 c-23 5 -37 14 -40 26 -3 10 0 19 5 19 6 0 4 8 -3 17 -10 11 -10 14 -1 9
6 -4 12 -3 12 3 0 5 -5 13 -11 17 -8 4 -7 9 2 15 11 7 11 9 -1 9 -13 0 -13 1
0 11 11 8 12 12 2 16 -6 2 -9 9 -6 15 9 14 9 121 0 136 -4 7 -2 12 6 12 10 0
10 2 -1 9 -9 6 -10 10 -2 12 9 3 9 12 2 32 -6 15 -7 27 -2 27 12 0 -2 59 -20
88 -8 12 -31 35 -52 49 l-39 27 -367 1 c-201 1 -372 4 -379 9 -6 4 -12 3 -12
-2 0 -9 -92 -8 -108 2 -6 4 -13 2 -16 -3 -7 -10 -61 -9 -72 2 -4 3 -14 3 -23
-2 -20 -9 -152 -8 -169 3 -7 4 -12 3 -12 -2 0 -9 -92 -8 -108 2 -6 3 -13 3
-16 -2 -6 -10 -127 -9 -143 1 -7 4 -14 4 -17 -1 -6 -10 -167 -9 -184 2 -7 4
-12 3 -12 -1 0 -10 -172 -9 -188 1 -6 3 -13 2 -16 -3 -6 -9 -77 -8 -93 2 -5 3
-15 2 -22 -2z"/>
</g>
</svg>
