<?xml version="1.0" encoding="UTF-8" standalone="no"?>
<!-- Generator: Adobe Illustrator 16.0.0, SVG Export Plug-In . SVG Version: 6.00 Build 0)  -->

<svg
   xmlns:dc="http://purl.org/dc/elements/1.1/"
   xmlns:cc="http://creativecommons.org/ns#"
   xmlns:rdf="http://www.w3.org/1999/02/22-rdf-syntax-ns#"
   xmlns:svg="http://www.w3.org/2000/svg"
   xmlns="http://www.w3.org/2000/svg"
   xmlns:sodipodi="http://sodipodi.sourceforge.net/DTD/sodipodi-0.dtd"
   xmlns:inkscape="http://www.inkscape.org/namespaces/inkscape"
   version="1.1"
   id="Layer_1"
   x="0px"
   y="0px"
   width="24px"
   height="16px"
   viewBox="0 0 24 16"
   enable-background="new 0 0 24 16"
   xml:space="preserve"
   inkscape:version="0.91 r13725"
   sodipodi:docname="cd-arrow.svg"><metadata
     id="metadata9"><rdf:RDF><cc:Work
         rdf:about=""><dc:format>image/svg+xml</dc:format><dc:type
           rdf:resource="http://purl.org/dc/dcmitype/StillImage" /><dc:title></dc:title></cc:Work></rdf:RDF></metadata><defs
     id="defs7" /><sodipodi:namedview
     pagecolor="#ffffff"
     bordercolor="#666666"
     borderopacity="1"
     objecttolerance="10"
     gridtolerance="10"
     guidetolerance="10"
     inkscape:pageopacity="0"
     inkscape:pageshadow="2"
     inkscape:window-width="1440"
     inkscape:window-height="851"
     id="namedview5"
     showgrid="false"
     inkscape:zoom="11.416667"
     inkscape:cx="-0.70072993"
     inkscape:cy="15.007299"
     inkscape:window-x="0"
     inkscape:window-y="1"
     inkscape:window-maximized="1"
     inkscape:current-layer="Layer_1" /><path
     d="M 0.313,7.5943652 6.709,1.2013649 c 0.417,-0.41700001 1.094,-0.41700001 1.511,0 0.417,0.417 0.417,1.093 0,1.51 l -4.576,4.5740003 19.289,0 c 0.589,0 1.067,0.477 1.067,1.066 0,0.589 -0.478,1.066 -1.067,1.066 l -19.289,0 4.576,4.5729998 c 0.417,0.417 0.417,1.093 0,1.51 -0.417,0.417 -1.094,0.417 -1.511,0 L 0.313,9.1083652 c -0.209,-0.209 -0.313,-0.484 -0.313,-0.757 0,-0.274 0.104,-0.548 0.313,-0.757 z"
     id="path3"
     inkscape:connector-curvature="0"
     style="clip-rule:evenodd;fill:#008080;fill-opacity:1;fill-rule:evenodd" /></svg>